<?xml version="1.0" encoding="UTF-8" standalone="no"?>
<!-- Created with Inkscape (http://www.inkscape.org/) -->

<svg
   width="169.99962mm"
   height="145.24991mm"
   viewBox="0 0 169.99962 145.24991"
   version="1.1"
   id="svg5"
   inkscape:version="1.2.1 (9c6d41e410, 2022-07-14)"
   sodipodi:docname="serpentina.svg"
   xmlns:inkscape="http://www.inkscape.org/namespaces/inkscape"
   xmlns:sodipodi="http://sodipodi.sourceforge.net/DTD/sodipodi-0.dtd"
   xmlns="http://www.w3.org/2000/svg"
   xmlns:svg="http://www.w3.org/2000/svg">
  <sodipodi:namedview
     id="namedview7"
     pagecolor="#ffffff"
     bordercolor="#000000"
     borderopacity="0.25"
     inkscape:showpageshadow="2"
     inkscape:pageopacity="0.0"
     inkscape:pagecheckerboard="0"
     inkscape:deskcolor="#d1d1d1"
     inkscape:document-units="mm"
     showgrid="true"
     inkscape:zoom="0.71624579"
     inkscape:cx="277.83758"
     inkscape:cy="352.53261"
     inkscape:window-width="1920"
     inkscape:window-height="991"
     inkscape:window-x="-9"
     inkscape:window-y="-9"
     inkscape:window-maximized="1"
     inkscape:current-layer="layer1">
    <inkscape:grid
       type="xygrid"
       id="grid182"
       originx="-20.000187"
       originy="-19.75" />
  </sodipodi:namedview>
  <defs
     id="defs2" />
  <g
     inkscape:label="Layer 1"
     inkscape:groupmode="layer"
     id="layer1"
     transform="translate(-20.000187,-19.749998)">
    <path
       id="path236"
       style="fill:#000000;stroke-width:0.7;stroke-miterlimit:2.7"
       d="M 40,44.999764 C 28.954249,44.999867 20.000005,53.954343 20.000187,65.000094 20.00029,76.045643 28.954451,84.999804 40,84.999907 51.045549,84.999804 59.99971,76.045643 59.999813,65.000094 59.999995,53.954343 51.045751,44.999867 40,44.999764 Z m -4.7e-5,11.999822 c 4.418397,4.2e-5 8.00014,3.581992 7.999953,8.000414 -4.1e-5,4.418261 -3.581718,7.999958 -7.999953,8 C 35.581718,72.999959 32.000042,69.418261 32,65 c -1.87e-4,-4.418423 3.581557,-8.000373 7.999953,-8.000414 z"
       sodipodi:nodetypes="cccccccccc" />
    <path
       id="path236-0"
       style="fill:#000000;stroke-width:0.7;stroke-miterlimit:2.7"
       d="m 170,124.99976 c -11.04575,1e-4 -19.99999,8.95458 -19.99981,20.00033 1e-4,11.04555 8.95426,19.99971 19.99981,19.99981 11.04555,-1e-4 19.99971,-8.95426 19.99981,-19.99981 C 189.99999,133.95434 181.04575,124.99986 170,124.99976 Z M 170,137 c 4.41837,4e-5 8.00009,3.5819 7.9999,8.0002 -4e-5,4.41815 -3.58169,7.99976 -7.9999,7.9998 -4.41821,-4e-5 -7.99987,-3.58165 -7.99991,-7.9998 -1.8e-4,-4.4183 3.58154,-8.00016 7.99991,-8.0002 z"
       sodipodi:nodetypes="cccccccccc" />
    <path
       style="fill:none;stroke:#000000;stroke-width:15;stroke-miterlimit:2.7;stroke-dasharray:none"
       d="m 55,65 40,-10e-7 c 10,0 9.99999,0 15,-10 m 20,0 c 5,10 4.99999,10 14.99999,10 L 160,65 c 0,0 20,0 20,20 0,20 -20,20 -20,20 H 55 c 0,0 -20,0 -20.000002,20 C 34.999996,145 55,145 55,145 h 85 20"
       id="path578"
       sodipodi:nodetypes="cccccczcczccc" />
    <path
       id="rect2803"
       style="stroke-miterlimit:2.7;paint-order:fill markers stroke"
       d="m 99.99238,27.633228 11.33296,13.41578 c 0.36054,0.426806 0.38316,1.031069 -0.0192,1.433469 l -3.14754,3.14754 c -0.4024,0.402401 -1.0061,0.378243 -1.43347,0.01924 L 93.27487,34.350742 c -0.6363,-0.534502 -0.58761,-1.533714 0,-2.12132 l 4.59619,-4.596194 c 0.5876,-0.587605 1.58506,-0.634812 2.12132,0 z"
       sodipodi:nodetypes="sssssssss" />
    <path
       id="rect2803-9"
       style="stroke-miterlimit:2.7;paint-order:fill markers stroke"
       d="m 146.70789,34.333519 -13.41578,11.33296 c -0.42681,0.36054 -1.03107,0.38316 -1.43347,-0.0192 l -3.14754,-3.14754 c -0.4024,-0.4024 -0.37825,-1.0061 -0.0192,-1.43347 l 11.29851,-13.45026 c 0.5345,-0.6363 1.53372,-0.58761 2.12132,0 l 4.5962,4.59619 c 0.5876,0.5876 0.63481,1.58506 0,2.12132 z"
       sodipodi:nodetypes="sssssssss" />
    <path
       id="rect2803-6"
       style="stroke-miterlimit:2.7;paint-order:fill markers stroke"
       d="M 124.73639,21.249998 123.26362,38.75 c -0.0469,0.556738 -0.45814,1.000011 -1.0272,1.000039 h -4.45129 c -0.56908,10e-7 -0.97888,-0.443962 -1.02722,-1.000012 L 115.2364,21.250001 c -0.072,-0.827882 0.66899,-1.500003 1.5,-1.5 l 6.49999,-3e-6 c 0.831,-3e-6 1.56969,0.671927 1.5,1.5 z"
       sodipodi:nodetypes="sssssssss" />
  </g>
</svg>
