<?xml version="1.0" encoding="UTF-8" standalone="no"?>
<!-- Created with Inkscape (http://www.inkscape.org/) -->

<svg
   width="35.373268mm"
   height="46.759544mm"
   viewBox="0 0 35.373268 46.759545"
   version="1.1"
   id="svg5"
   inkscape:version="1.2.1 (9c6d41e410, 2022-07-14)"
   sodipodi:docname="industry.svg"
   xml:space="preserve"
   xmlns:inkscape="http://www.inkscape.org/namespaces/inkscape"
   xmlns:sodipodi="http://sodipodi.sourceforge.net/DTD/sodipodi-0.dtd"
   xmlns="http://www.w3.org/2000/svg"
   xmlns:svg="http://www.w3.org/2000/svg"><sodipodi:namedview
     id="namedview7"
     pagecolor="#ffffff"
     bordercolor="#000000"
     borderopacity="0.25"
     inkscape:showpageshadow="2"
     inkscape:pageopacity="0.0"
     inkscape:pagecheckerboard="0"
     inkscape:deskcolor="#d1d1d1"
     inkscape:document-units="mm"
     showgrid="true"
     inkscape:zoom="0.35355339"
     inkscape:cx="748.11897"
     inkscape:cy="371.93817"
     inkscape:window-width="1920"
     inkscape:window-height="991"
     inkscape:window-x="-9"
     inkscape:window-y="-9"
     inkscape:window-maximized="1"
     inkscape:current-layer="layer1"><inkscape:grid
       type="xygrid"
       id="grid132"
       originx="-24.328249"
       originy="-79.996657" /></sodipodi:namedview><defs
     id="defs2" /><g
     inkscape:label="Layer 1"
     inkscape:groupmode="layer"
     id="layer1"
     transform="translate(-24.32825,-79.996654)"><path
       style="fill:#000000;stroke-width:0.169241"
       d="m 24.32825,115.26699 v -11.48945 l 0.38079,-0.10205 c 0.20944,-0.0561 1.52908,-0.1031 2.93255,-0.10436 l 2.55175,-0.003 1.08693,-0.43301 c 0.59782,-0.23815 1.31542,-0.53587 1.59467,-0.66159 0.27924,-0.12573 1.57394,-0.66352 2.8771,-1.19508 2.54833,-1.03949 3.72039,-1.539493 4.18642,-1.785943 0.16164,-0.0855 0.37906,-0.15542 0.48315,-0.15542 0.1041,0 0.57483,-0.19365 1.04606,-0.43034 0.47124,-0.23669 0.95829,-0.3914 1.08234,-0.34379 l 0.22554,0.0865 v 2.026223 c 0,1.11442 0.0649,2.06633 0.14419,2.11534 0.12312,0.0761 8.74003,-3.386773 11.03938,-4.436363 0.42637,-0.19463 1.18796,-0.51363 1.69242,-0.70888 0.50445,-0.19526 1.14566,-0.45985 1.42491,-0.58798 1.27412,-0.58461 2.24236,-0.89789 2.42542,-0.78475 l 0.19965,0.12386 -0.0432,15.136553 -0.0432,15.13654 -17.64341,0.0431 -17.64341,0.0431 z m 15.91157,7.50892 c 0.0954,-0.059 0.16636,-1.05832 0.16636,-2.34373 v -2.24092 L 40.20309,117.98817 40,117.78508 h -2.5894 -2.58938 v 2.52841 2.5284 l 0.63464,0.0782 c 0.82628,0.10183 4.5684,-0.0109 4.78396,-0.14419 z M 49,122.88907 l 0.21638,-0.13731 -0.0471,-2.44103 -0.0471,-2.44103 h -2.70787 -2.70786 l -0.0468,2.48305 -0.0468,2.48304 0.30062,0.0783 c 0.53174,0.13842 4.86254,0.11716 5.08651,-0.0249 z m 8.90881,0.0398 0.26771,-0.10273 v -2.41779 -2.41778 l -0.28364,-0.10885 c -0.32751,-0.12567 -4.742,-0.10579 -5.07728,0.0229 l -0.22405,0.086 v 2.42179 2.42178 l 0.21155,0.0854 c 0.30536,0.12321 4.7876,0.13142 5.10571,0.009 z m -26.55704,-2.60515 v -2.454 H 28.6439 25.93604 l -0.0469,2.50053 -0.0469,2.50052 2.75472,-0.0465 2.75472,-0.0465 z m -0.18309,-5.17996 0.26771,-0.10273 v -2.33055 -2.33055 l -0.23448,-0.19459 -0.23448,-0.19461 -2.51569,0.0469 -2.5157,0.0469 -0.0473,2.36123 c -0.026,1.29868 -0.009,2.4601 0.037,2.58093 l 0.0843,0.2197 h 2.44547 c 1.34501,0 2.56594,-0.0462 2.71317,-0.10272 z m 9.0623,-0.22463 c 0.0964,-0.18005 0.1752,-1.26912 0.1752,-2.42015 v -2.0928 L 40.20309,110.20309 40,110 h -2.49479 -2.49478 l -0.11718,0.18961 c -0.13492,0.2183 -0.11122,4.68732 0.026,4.9094 0.0502,0.0811 1.22635,0.14748 2.61382,0.14748 h 2.52268 z m 8.93791,-2.24505 0.0468,-2.48778 -2.51997,-0.0508 c -1.38599,-0.028 -2.64462,-0.0262 -2.79697,0.004 l -0.27698,0.0548 v 2.41338 c 0,2.92603 -0.29693,2.65667 2.86713,2.60086 l 2.63321,-0.0464 z m 8.96984,-0.009 0.0468,-2.4963 h -2.797 -2.79701 v 2.42579 c 0,2.94026 -0.29752,2.66909 2.86713,2.61327 l 2.63321,-0.0464 z m -7.96445,-12.53095 c -0.0982,-0.12729 0.22481,-6.668453 0.72912,-14.835173 0.1002,-1.62273 0.16159,-3.42299 0.1364,-4.00057 -0.0252,-0.57759 0.0135,-1.10641 0.086,-1.17517 l 0.1318,-0.12502 2.65556,0.002 c 3.28688,0.002 2.99104,-0.18474 3.00982,1.89874 0.009,0.96264 0.10393,3.16796 0.21168,4.9007 0.30276,4.86916 0.37941,7.12699 0.58976,10.5829 l 0.029,0.47612 -1.18469,0.39312 c -0.65158,0.2162 -1.41316,0.47413 -1.69241,0.57315 -0.27925,0.099 -0.9266,0.31248 -1.43855,0.47436 -0.51196,0.16189 -1.2461,0.40343 -1.63143,0.53678 -0.93625,0.323983 -1.52883,0.399753 -1.63206,0.298603 z"
       id="path8713"
       sodipodi:nodetypes="cccccssccssccssssscccccccsscccccccssscccccccccccccccsscccccccccccccccccccccccsccsccsscccccscscscccccscccccccsccccssscccssccssscc" /></g></svg>
